<?xml version="1.0" standalone="no"?>
<!DOCTYPE svg PUBLIC "-//W3C//DTD SVG 20010904//EN"
 "http://www.w3.org/TR/2001/REC-SVG-20010904/DTD/svg10.dtd">
<svg version="1.0" xmlns="http://www.w3.org/2000/svg"
 width="1109.000000pt" height="1280.000000pt" viewBox="0 0 1109.000000 1280.000000"
 preserveAspectRatio="xMidYMid meet">
<metadata>
Created by potrace 1.15, written by Peter Selinger 2001-2017
</metadata>
<g transform="translate(0.000000,1280.000000) scale(0.100000,-0.100000)"
fill="#000000" stroke="none">
<path d="M6780 11622 c0 -15 5 -43 10 -62 6 -19 12 -73 15 -120 3 -47 9 -134
14 -195 6 -60 15 -177 21 -260 26 -352 29 -375 60 -449 17 -39 30 -76 30 -82
0 -6 9 -23 20 -37 47 -59 12 -107 -77 -107 -28 0 -55 -5 -58 -11 -9 -13 -77
-3 -125 18 -19 9 -53 17 -75 18 -22 1 -70 5 -106 9 -73 9 -119 -6 -139 -45 -7
-11 -17 -18 -24 -16 -24 9 -119 -13 -141 -33 -12 -11 -28 -20 -36 -20 -14 1
-79 81 -79 98 0 19 -61 92 -89 107 -47 24 -53 20 -51 -32 6 -123 -1 -333 -10
-333 -27 0 -221 -139 -333 -238 -75 -67 -149 -123 -188 -142 -35 -18 -120 -64
-189 -103 -128 -72 -233 -128 -375 -201 -44 -23 -95 -52 -112 -64 -17 -12 -33
-22 -36 -22 -2 0 -53 -28 -113 -62 -60 -34 -134 -72 -164 -86 -121 -54 -297
-124 -323 -129 -17 -3 -57 5 -100 20 -226 82 -342 86 -452 19 -59 -36 -170
-148 -216 -219 -41 -62 -48 -67 -149 -99 -88 -27 -338 -122 -421 -160 -42 -18
-120 -43 -174 -54 -53 -11 -124 -27 -158 -37 -45 -12 -107 -17 -222 -18 -88
-1 -169 -5 -180 -10 -58 -23 -222 -147 -311 -232 -131 -127 -146 -159 -152
-311 l-4 -112 -42 -48 c-65 -72 -109 -151 -114 -202 -2 -29 5 -80 21 -141 14
-53 31 -132 37 -175 6 -44 15 -93 20 -111 5 -20 2 -61 -7 -110 -20 -107 -14
-251 15 -323 27 -68 136 -192 196 -222 22 -11 59 -35 81 -52 22 -18 69 -50
104 -72 63 -38 67 -39 156 -39 l91 0 1 -46 c2 -116 135 -242 283 -269 40 -7
97 -28 147 -55 124 -66 239 -98 348 -98 219 -1 408 129 475 326 11 34 27 70
35 81 13 18 17 16 75 -27 33 -25 90 -60 128 -77 75 -36 82 -43 82 -85 0 -16 7
-64 16 -105 8 -41 16 -122 18 -178 1 -86 5 -105 19 -113 25 -14 24 -79 -2 -79
-35 0 -42 -23 -19 -60 20 -33 31 -137 29 -275 0 -56 26 -145 43 -145 8 0 17
-12 20 -28 15 -80 17 -114 7 -126 -15 -18 4 -127 26 -146 10 -8 24 -42 30 -74
21 -102 93 -197 118 -156 22 36 67 -49 109 -206 14 -49 32 -109 42 -133 16
-40 16 -45 1 -71 -10 -16 -17 -35 -17 -44 0 -9 -25 -43 -55 -76 -52 -57 -55
-63 -55 -113 0 -51 2 -54 41 -79 50 -33 69 -28 147 39 62 53 60 54 109 -42 24
-47 214 -306 307 -420 23 -27 53 -66 67 -85 33 -44 443 -477 559 -590 48 -47
147 -139 220 -205 73 -66 216 -196 317 -288 102 -92 218 -193 258 -225 40 -31
111 -87 157 -124 125 -101 195 -153 286 -216 186 -127 198 -134 407 -233 87
-42 205 -69 325 -76 71 -4 110 -10 122 -20 15 -13 20 -13 46 6 33 23 98 40
154 41 21 0 71 16 115 36 43 20 94 42 113 49 47 17 196 90 245 120 22 14 72
37 110 51 39 15 75 30 80 34 6 4 84 43 175 85 91 43 235 111 320 152 85 41
218 100 295 132 288 118 272 115 300 61 28 -54 66 -296 86 -551 18 -224 -1
-858 -36 -1209 -8 -80 -17 -198 -20 -263 l-6 -117 880 0 881 0 0 3162 0 3162
-65 64 c-36 34 -65 65 -65 67 0 3 -8 14 -17 24 -10 11 -23 26 -28 33 -6 7 -43
50 -83 95 -40 45 -72 85 -72 90 0 4 -16 19 -35 32 -19 13 -35 30 -35 38 0 8
-13 26 -30 40 -16 13 -30 31 -30 39 0 8 -5 14 -11 14 -12 0 -219 211 -219 223
0 8 -38 52 -117 133 -29 29 -57 63 -63 74 -6 11 -17 20 -25 20 -7 0 -15 4 -17
10 -3 10 -50 66 -115 138 -24 26 -59 68 -79 95 -20 26 -43 47 -50 47 -7 0 -26
19 -43 43 -16 24 -47 57 -68 72 -21 16 -58 48 -83 71 -25 23 -57 48 -72 55
-15 8 -48 32 -74 54 -26 22 -63 54 -83 70 -20 17 -48 36 -63 43 -16 6 -38 31
-53 59 -13 26 -35 65 -47 85 -22 35 -36 57 -111 168 -17 25 -49 72 -71 105
-73 109 -212 292 -361 471 -160 194 -205 253 -205 274 0 10 -5 22 -11 26 -8 4
-9 33 -4 91 l7 85 -43 44 c-31 32 -55 46 -81 50 -21 4 -54 21 -75 39 -21 17
-49 38 -63 45 -30 15 -69 46 -154 120 -35 30 -82 71 -105 90 -81 68 -123 125
-188 255 -30 60 -61 117 -68 125 -7 8 -34 55 -60 104 -26 49 -59 107 -73 129
-15 22 -41 66 -59 98 -42 77 -178 284 -217 331 -17 20 -44 63 -60 95 -17 32
-38 69 -48 82 -10 13 -27 51 -38 85 -101 317 -186 475 -293 547 -54 35 -65 39
-123 39 -63 0 -64 0 -64 -28z m-2970 -5260 c58 -10 164 -29 235 -41 180 -31
175 -30 175 -46 0 -22 -58 -83 -104 -110 -57 -33 -80 -34 -102 -7 -13 15 -48
31 -104 47 -104 30 -115 30 -151 4 l-29 -20 -45 20 c-24 11 -78 43 -120 72
-84 59 -85 69 -6 94 54 17 109 14 251 -13z m520 -148 c0 -13 5 -26 10 -29 6
-3 10 -24 10 -47 0 -51 36 -117 64 -120 12 -1 35 -2 51 -2 36 -1 74 -29 100
-74 27 -45 78 -60 148 -43 29 8 61 21 72 31 11 10 31 23 45 30 70 35 176 123
207 173 24 39 26 39 71 33 43 -5 263 -24 337 -28 45 -2 65 -16 65 -43 0 -13 5
-27 10 -30 6 -4 10 -22 8 -40 -1 -18 4 -40 11 -49 17 -20 151 -86 175 -86 10
0 79 -59 155 -131 159 -154 326 -298 451 -389 141 -102 314 -236 327 -252 10
-12 1 -28 -51 -94 -36 -43 -96 -114 -135 -158 l-71 -79 0 -62 c0 -83 14 -96
89 -84 53 8 82 25 110 64 9 11 31 36 51 56 19 20 58 62 85 94 28 31 64 73 81
92 l32 35 34 -24 c221 -149 439 -283 563 -348 39 -20 117 -63 175 -95 95 -53
189 -100 585 -290 66 -32 136 -64 155 -71 19 -6 39 -20 45 -31 5 -10 14 -21
18 -24 4 -3 17 -39 29 -80 11 -40 36 -110 55 -154 19 -44 43 -102 55 -130 12
-27 52 -116 90 -197 37 -80 68 -154 68 -164 0 -10 6 -25 14 -33 8 -9 49 -97
91 -196 42 -99 113 -250 158 -335 140 -268 257 -504 257 -521 0 -22 -482 -261
-645 -319 -27 -10 -68 -27 -90 -38 -50 -25 -275 -112 -422 -163 -80 -27 -129
-39 -169 -39 -76 0 -321 -83 -474 -161 -63 -32 -146 -66 -184 -76 -65 -16 -75
-16 -145 -1 -72 15 -159 50 -246 100 -113 64 -453 376 -926 848 -228 228 -538
537 -689 685 -371 367 -631 644 -752 802 -116 153 -115 136 -26 264 l49 72
-11 53 c-13 60 -19 67 -77 84 -37 12 -44 11 -72 -9 -16 -12 -43 -40 -58 -63
-15 -23 -33 -43 -39 -45 -18 -6 -93 176 -103 252 -18 131 -19 174 -4 187 21
17 8 114 -29 213 -70 190 -104 629 -76 978 11 140 12 147 33 147 27 0 107 52
140 92 14 16 35 52 47 79 l21 50 23 -22 c13 -13 24 -33 24 -45z m2969 -61 c35
-34 141 -170 141 -182 0 -6 13 -19 30 -31 18 -13 33 -36 40 -60 7 -27 27 -53
64 -87 34 -30 58 -62 66 -86 7 -22 32 -60 57 -85 80 -82 149 -175 186 -247 34
-67 128 -293 142 -345 4 -14 19 -50 33 -80 14 -30 49 -120 78 -200 28 -80 62
-173 75 -207 13 -34 21 -64 17 -68 -13 -13 -540 247 -708 350 -52 32 -124 74
-160 94 -88 50 -356 226 -364 240 -4 6 10 32 31 59 21 26 58 70 81 98 76 94
85 116 78 187 l-7 62 -52 -2 c-29 -1 -61 -2 -73 -3 -15 0 -43 -29 -92 -92 -39
-51 -88 -113 -110 -137 l-39 -45 -39 30 c-140 105 -404 324 -510 425 -45 42
-93 85 -108 94 -23 15 -25 20 -12 27 10 5 24 4 38 -3 36 -19 304 -13 423 10
202 39 504 177 634 290 13 12 25 21 27 21 1 0 16 -12 33 -27z"/>
</g>
</svg>
